<svg width="38" height="38" viewBox="0 0 38 38" fill="none" xmlns="http://www.w3.org/2000/svg">
<path d="M19.095 0.114024C14.744 0.779024 11.134 2.31802 8.66398 4.57902C7.20098 5.90902 5.81398 8.05602 5.18698 9.93702C4.69298 11.419 4.67398 11.666 4.69298 14.82C4.73098 18.734 4.59798 19.228 2.92598 20.919C1.69098 22.154 1.48198 22.914 2.01398 24.035C2.26098 24.567 2.58398 24.852 3.30598 25.194C3.83798 25.441 4.38898 25.65 4.52198 25.65C4.76898 25.65 4.84498 26.638 4.76898 28.462C4.71198 29.393 4.76898 29.507 5.43398 30.172C6.04198 30.761 6.17498 31.046 6.28898 31.977C6.38398 32.756 6.55498 33.231 6.87798 33.573C7.73298 34.485 8.28398 34.637 10.621 34.599C13.737 34.542 15.01 35.093 15.827 36.822C16.188 37.582 16.34 37.715 17.005 37.867C17.841 38.038 21.318 37.734 27.36 36.936C32.319 36.29 32.433 36.195 31.54 33.725C31.198 32.794 31.141 32.319 31.217 31.16C31.35 29.279 31.806 27.949 33.82 23.75C36.119 18.905 36.195 18.677 36.195 15.58C36.176 12.844 35.872 11.286 34.884 9.06302C33.839 6.68802 31.597 3.99002 29.45 2.52702C27.075 0.912024 24.757 0.171024 21.85 0.0950238C20.653 0.0570238 19.418 0.0760238 19.095 0.114024ZM23.997 2.20402C27.816 3.07802 31.198 5.85202 32.984 9.59502C33.82 11.362 34.2 12.844 34.333 14.915C34.466 17.062 34.029 18.943 32.756 21.717C32.262 22.781 31.445 24.586 30.932 25.707C29.678 28.5 29.184 30.457 29.336 32.3C29.393 33.079 29.488 33.934 29.545 34.2L29.659 34.694L26.467 35.112C24.719 35.34 22.04 35.663 20.52 35.815C17.784 36.1 17.765 36.1 17.48 35.701C16.625 34.523 15.808 33.782 14.858 33.307C13.851 32.813 13.585 32.775 11.229 32.737C9.68998 32.699 8.58798 32.604 8.43598 32.471C8.28398 32.357 8.16998 31.92 8.16998 31.502C8.16998 30.533 7.77098 29.602 7.12498 29.089C6.63098 28.709 6.61198 28.652 6.83998 28.215C7.04898 27.816 7.04898 27.607 6.83998 26.98C6.64998 26.41 6.63098 26.049 6.78298 25.555C6.95398 24.985 6.93498 24.833 6.61198 24.415C6.38398 24.13 6.04198 23.94 5.73798 23.94C5.18698 23.94 3.60998 23.294 3.60998 23.066C3.60998 22.99 4.08498 22.439 4.65498 21.831C6.38398 20.026 6.53598 19.513 6.57398 15.485C6.61198 12.749 6.68798 11.818 6.99198 10.792C8.49298 5.56702 14.193 2.07102 21.432 1.91902C22.097 1.91902 23.237 2.03302 23.997 2.20402Z" fill="black"/>
<path d="M16.815 5.30106C14.117 6.09906 12.54 7.25806 12.54 8.43606C12.54 9.29106 13.281 10.0701 14.079 10.0701C14.364 10.0701 15.257 9.70906 16.074 9.27206C17.347 8.58806 17.727 8.47406 19 8.39806C20.862 8.28406 22.154 8.68306 23.199 9.67106C24.605 11.0201 23.997 11.9131 21.052 12.8061C18.677 13.5281 18.544 13.6801 18.468 15.5611C18.335 18.3161 18.734 19.1901 20.121 19.1901C21.28 19.1901 21.736 18.6961 21.85 17.2901L21.945 16.1121L22.895 15.7891C25.783 14.7631 27.341 13.1291 27.36 11.1151C27.36 9.34806 26.011 7.20106 24.187 6.13706C22.211 4.97806 19.114 4.63606 16.815 5.30106Z" fill="black"/>
<path d="M19.209 22.3441C18.335 23.4651 19 25.0801 20.33 25.0801C21.432 25.0801 21.945 24.5671 21.945 23.4651C21.945 22.3631 21.432 21.8501 20.33 21.8501C19.76 21.8501 19.513 21.9641 19.209 22.3441Z" fill="black"/>
</svg>
