<svg width="38" height="38" viewBox="0 0 38 38" fill="none" xmlns="http://www.w3.org/2000/svg">
<path d="M9.93699 3.62903C9.29099 3.70503 8.22699 3.91403 7.56199 4.08503C6.00399 4.50303 1.99499 6.47903 1.10199 7.25803L0.41799 7.88503L0.28499 18.335C0.15199 30.514 0.0379902 29.754 1.82399 29.108C7.94199 26.904 14.402 27.303 18.183 30.134C18.943 30.704 19.247 30.704 20.007 30.134C23.712 27.36 30.001 26.904 36.043 28.994C37.183 29.393 37.506 29.431 37.734 29.241C37.981 29.032 38 27.645 37.924 18.392C37.848 8.34103 37.829 7.75203 37.487 7.48603C35.663 6.08003 32.129 4.40803 29.83 3.89503C28.063 3.49603 25.175 3.49603 23.693 3.89503C22.401 4.23703 20.881 4.97803 19.931 5.71903C19.551 6.02303 19.171 6.27003 19.095 6.27003C19.019 6.27003 18.696 6.04203 18.373 5.77603C16.397 4.12303 13.034 3.26803 9.93699 3.62903ZM14.269 5.24403C15.713 5.68103 16.872 6.28903 17.898 7.20103C18.886 8.07503 19.342 8.17003 19.874 7.56203C20.52 6.84003 22.458 5.70003 23.712 5.32003C25.346 4.80703 27.93 4.80703 29.944 5.32003C31.407 5.70003 35.226 7.46703 36.024 8.13203C36.423 8.47403 36.442 8.56903 36.518 18.012C36.556 24.529 36.518 27.55 36.385 27.55C36.29 27.55 35.606 27.379 34.865 27.17C33.174 26.695 30.039 26.22 28.462 26.22C25.783 26.22 22.344 27.132 20.178 28.405L19.114 29.032L18.354 28.538C17.233 27.835 15.238 27.056 13.547 26.657C10.697 25.992 5.94699 26.296 2.77399 27.341L1.70999 27.683V18.069V8.45503L2.67899 7.80903C4.14199 6.85903 6.64999 5.73803 8.20799 5.33903C9.99399 4.86403 12.863 4.82603 14.269 5.24403Z" fill="black"/>
<path d="M11.78 8.49294C10.545 8.70194 10.07 8.94893 10.07 9.40493C10.07 9.95593 10.469 10.1079 11.229 9.84193C11.989 9.57593 13.775 9.74693 14.668 10.1649C15.447 10.5449 15.96 10.4499 15.96 9.89893C15.96 9.10093 13.338 8.20794 11.78 8.49294Z" fill="black"/>
<path d="M5.87102 8.81598C4.46502 9.19598 3.87602 9.72798 3.72402 10.754C3.47702 12.54 3.59102 14.174 3.95202 14.497C4.40802 14.915 4.59802 14.896 5.41502 14.421C5.79502 14.193 6.57402 13.87 7.18202 13.68L8.26502 13.338L8.32202 11.21C8.36002 9.80398 8.30302 8.98698 8.15102 8.81598C7.88502 8.49298 7.04902 8.49298 5.87102 8.81598ZM7.22002 11.115C7.22002 12.141 7.16302 12.388 6.89702 12.464C6.70702 12.521 6.19402 12.73 5.75702 12.939L4.94002 13.3V11.894V10.488L5.66202 10.203C6.04202 10.032 6.55502 9.89898 6.80202 9.89898C7.20102 9.87998 7.22002 9.95598 7.22002 11.115Z" fill="black"/>
<path d="M23.997 9.59496C22.705 9.95596 20.786 10.925 20.653 11.286C20.596 11.438 20.653 11.704 20.786 11.894C21.033 12.217 21.128 12.198 22.439 11.552C25.441 10.07 28.348 10.108 31.958 11.685C33.383 12.293 33.554 12.331 33.763 12.046C33.877 11.875 33.934 11.628 33.877 11.476C33.744 11.134 32.452 10.469 30.78 9.87996C29.184 9.30996 25.517 9.15796 23.997 9.59496Z" fill="black"/>
<path d="M10.849 11.362C10.108 11.514 9.67098 12.027 9.99398 12.35C10.108 12.464 10.925 12.578 11.799 12.597C13.034 12.635 13.604 12.73 14.307 13.072C15.333 13.585 15.827 13.509 15.732 12.882C15.599 11.951 12.616 11.02 10.849 11.362Z" fill="black"/>
<path d="M24.415 12.426C22.458 12.92 20.9 13.813 20.9 14.459C20.9 15.067 21.356 15.067 22.591 14.459C24.263 13.604 26.011 13.243 27.74 13.357C29.317 13.49 31.331 14.041 32.756 14.763C33.573 15.181 33.706 15.2 33.972 14.953C34.124 14.782 34.2 14.516 34.124 14.345C33.972 13.908 31.388 12.749 29.868 12.426C28.329 12.103 25.707 12.103 24.415 12.426Z" fill="black"/>
<path d="M9.57598 15.029C6.85898 15.371 3.22998 17.005 3.22998 17.879C3.22998 18.544 3.78098 18.487 5.49098 17.613C8.49298 16.074 11.609 15.751 14.155 16.72C15.789 17.328 16.264 17.385 16.416 17.005C16.568 16.568 16.435 16.397 15.618 15.979C13.965 15.143 11.59 14.763 9.57598 15.029Z" fill="black"/>
<path d="M24.035 15.371C22.42 15.865 21.85 16.112 21.128 16.644C20.615 17.043 20.558 17.176 20.71 17.499C20.976 17.993 21.223 17.955 22.477 17.29C25.213 15.808 28.614 15.884 32.186 17.518C33.421 18.107 33.497 18.107 33.744 17.784C34.143 17.214 33.763 16.815 32.186 16.15C29.393 14.991 26.315 14.706 24.035 15.371Z" fill="black"/>
<path d="M7.60004 18.297C5.54804 18.924 3.34403 20.14 3.26803 20.691C3.15403 21.47 3.59103 21.451 5.26303 20.596C8.89204 18.753 12.008 18.525 15.048 19.931C15.903 20.311 16.245 20.292 16.435 19.798C16.587 19.38 16.036 18.943 14.668 18.411C12.996 17.765 9.51904 17.708 7.60004 18.297Z" fill="black"/>
<path d="M24.32 18.202C22.61 18.658 21.014 19.5509 20.938 20.1019C20.843 20.7479 21.375 20.8239 22.382 20.2919C25.384 18.677 29.032 18.715 32.433 20.3679C33.573 20.9379 33.668 20.9569 33.972 20.6529C34.466 20.1589 34.086 19.7599 32.433 19.038C29.697 17.86 26.771 17.556 24.32 18.202Z" fill="black"/>
<path d="M7.98003 21.0329C7.31503 21.2229 5.98503 21.7549 5.03503 22.2299C3.57203 22.9709 3.32503 23.1609 3.26803 23.6169C3.17303 24.3769 3.61003 24.4339 4.67403 23.7879C8.11303 21.7549 11.818 21.3559 14.725 22.6859C15.827 23.1799 16.226 23.1799 16.435 22.6479C16.606 22.2109 16.169 21.8879 14.706 21.3369C12.977 20.6909 9.84203 20.5579 7.98003 21.0329Z" fill="black"/>
<path d="M25.175 20.9C23.123 21.356 21.09 22.401 21.09 23.009C21.09 23.655 21.641 23.636 23.161 22.914C26.087 21.546 29.355 21.66 32.756 23.275C33.934 23.826 34.447 23.788 34.352 23.142C34.219 22.173 30.704 20.919 27.835 20.805C26.79 20.767 25.593 20.805 25.175 20.9Z" fill="black"/>
<path d="M6.36501 28.785C3.40101 29.279 0.285006 30.305 0.057006 30.894C5.99541e-06 31.065 0.114006 31.35 0.342006 31.597L0.760006 31.996L2.31801 31.502C5.79501 30.381 6.19401 30.324 9.50001 30.324C12.977 30.324 13.813 30.514 15.884 31.825C16.587 32.281 18.221 33.934 18.335 34.314C18.335 34.333 18.525 34.409 18.772 34.466C19.114 34.58 19.399 34.39 20.425 33.288C22.534 31.046 24.719 30.21 28.424 30.21C30.742 30.21 33.269 30.666 35.492 31.464C36.651 31.882 36.974 31.939 37.354 31.749C37.734 31.578 37.829 31.426 37.772 31.027C37.715 30.552 37.563 30.438 36.138 29.963C33.174 28.956 31.293 28.633 28.405 28.633C26.429 28.614 25.422 28.709 24.529 28.956C22.762 29.431 20.957 30.362 19.855 31.388L18.886 32.262L18.145 31.502C15.789 29.127 11.02 28.025 6.36501 28.785Z" fill="black"/>
</svg>
