<svg width="38" height="38" viewBox="0 0 38 38" fill="none" xmlns="http://www.w3.org/2000/svg">
<path d="M23.465 5.87103C21.907 6.57403 19.456 7.73303 18.05 8.39803C10.431 12.084 8.56897 12.958 6.19397 13.984C4.69297 14.63 4.67397 14.649 4.00897 14.326C2.83097 13.756 0.75997 14.06 0.26597 14.858C0.18997 14.972 0.13297 16.796 0.17097 18.886C0.20897 22.686 0.20897 22.705 0.66497 23.123C1.34897 23.731 2.29897 23.845 3.45797 23.465C3.98997 23.294 4.61697 23.199 4.84497 23.256C5.24397 23.351 5.26297 23.389 5.01597 24.32C4.59797 25.935 4.50297 27.759 4.73097 29.944C4.90197 31.426 5.05397 32.11 5.28197 32.319C5.45297 32.49 6.32697 32.813 7.21997 33.041C8.79697 33.44 8.83497 33.44 9.30997 33.079C9.76597 32.737 9.78497 32.68 9.72797 30.761L9.65197 28.785L10.678 28.063C11.229 27.645 11.97 26.942 12.331 26.486C12.692 26.011 13.091 25.669 13.205 25.726C14.649 26.277 22.42 27.588 25.688 27.854C27.949 28.025 28.101 27.911 28.861 25.517C30.666 19.855 31.027 13.984 29.83 9.80403C29.013 6.93503 27.55 4.56003 26.638 4.56003C26.467 4.56003 25.042 5.14903 23.465 5.87103ZM28.139 10.849C28.5 12.198 28.576 12.92 28.576 15.58C28.557 18.867 28.272 20.881 27.36 23.94L26.961 25.308L26.486 24.871C26.03 24.453 25.042 22.61 24.795 21.736C24.719 21.413 24.833 21.242 25.346 20.919C26.866 19.969 27.759 17.632 27.36 15.694C27.113 14.516 26.049 13.129 25.08 12.73C24.548 12.521 24.51 12.426 24.605 11.894C24.852 10.773 25.612 8.74003 26.144 7.84703L26.676 6.93503L27.189 8.09403C27.493 8.74003 27.911 9.97503 28.139 10.849ZM23.94 7.82803C23.94 7.86603 23.769 8.32203 23.56 8.85403C22.306 12.198 21.964 17.784 22.819 21.603C22.952 22.192 23.427 23.389 23.864 24.263C24.301 25.137 24.548 25.84 24.434 25.84C23.731 25.821 19.874 25.232 17.765 24.795C14.687 24.187 11.837 23.446 7.73297 22.192L4.55997 21.223V19.114C4.55997 17.955 4.63597 16.91 4.71197 16.796C4.78797 16.682 5.49097 16.34 6.26997 15.998C7.84697 15.352 12.16 13.338 19.095 10.013C23.275 7.99903 23.94 7.69503 23.94 7.82803ZM25.061 15.181C25.859 16.302 25.802 17.803 24.928 18.848L24.415 19.456L24.32 17.746C24.206 15.827 24.282 14.63 24.51 14.63C24.605 14.63 24.852 14.877 25.061 15.181ZM2.69797 18.753C2.62197 21.242 2.48897 22.116 2.20397 21.831C2.14697 21.793 2.08997 20.444 2.05197 18.848C1.99497 16.017 1.99497 15.96 2.39397 15.96C2.79297 15.96 2.79297 16.017 2.69797 18.753ZM8.35997 24.586C8.34097 24.7 8.22697 25.308 8.07497 25.935C7.92297 26.562 7.78997 28.006 7.78997 29.146V31.198L7.27697 31.065C6.97297 30.989 6.70697 30.894 6.66897 30.856C6.45997 30.647 6.57397 25.669 6.80197 24.871L7.06797 23.978L7.71397 24.187C8.07497 24.301 8.35997 24.472 8.35997 24.586ZM10.83 25.232C10.83 25.327 10.659 25.555 10.45 25.745C10.07 26.087 9.97497 25.954 10.184 25.384C10.298 25.061 10.83 24.947 10.83 25.232Z" fill="black"/>
<path d="M32.148 7.73306C31.54 7.98006 31.521 8.53106 32.091 10.2601C33.44 14.2501 33.117 18.5251 31.217 22.2871C30.476 23.7691 30.495 24.4341 31.255 24.6241C31.92 24.7951 32.205 24.4911 33.06 22.8191C34.2 20.5391 34.599 18.8861 34.713 16.0361C34.827 13.2811 34.561 11.4001 33.706 9.15806C33.155 7.67606 32.889 7.42906 32.148 7.73306Z" fill="black"/>
<path d="M35.815 10.963C35.492 11.286 35.492 11.362 35.891 13.3C36.214 14.744 36.138 16.739 35.701 18.259C35.473 19.038 35.264 19.988 35.207 20.368C35.131 20.995 35.169 21.109 35.625 21.318C36.309 21.622 36.632 21.394 37.069 20.292C38.038 17.822 38.247 14.155 37.544 11.894C37.164 10.621 36.499 10.26 35.815 10.963Z" fill="black"/>
</svg>
