<svg width="38" height="38" viewBox="0 0 38 38" fill="none" xmlns="http://www.w3.org/2000/svg">
<g clip-path="url(#clip0_173_31)">
<path d="M16.758 0.228008C16.625 0.361008 16.53 0.988008 16.53 1.74801V3.04001H14.763C12.654 3.04001 12.388 3.19201 12.312 4.37001L12.255 5.22501L9.69001 5.33901C8.20801 5.39601 6.93501 5.52901 6.68801 5.68101L6.27001 5.90901L6.38401 12.692C6.46001 16.777 6.42201 22.819 6.27001 27.911C6.11801 33.573 6.09901 36.385 6.23201 36.518C6.47901 36.765 11.096 37.335 15.105 37.62C16.777 37.734 21.052 37.886 24.624 37.943L31.084 38.057L31.502 37.525L31.92 36.993L31.901 22.059C31.901 11.02 31.844 6.95401 31.673 6.46001L31.445 5.79501L28.88 5.70001L26.315 5.60501L26.258 4.65501C26.182 3.40101 25.935 3.23001 24.111 3.23001H22.667L22.534 1.90001C22.458 1.12101 22.287 0.456008 22.116 0.285008C21.736 -0.0759919 17.119 -0.132992 16.758 0.228008ZM20.71 2.66001V3.23001H19.57H18.43V2.66001V2.09001H19.57H20.71V2.66001ZM24.244 5.37701C24.263 5.39601 24.339 6.44101 24.415 7.67601L24.548 9.93701L20.957 9.82301C19 9.74701 16.587 9.69001 15.637 9.69001H13.889L13.984 7.82801C14.041 6.82101 14.117 5.77601 14.174 5.52901L14.269 5.07301L19.247 5.22501C21.983 5.30101 24.244 5.37701 24.244 5.37701ZM11.97 9.10101C11.97 10.507 12.046 11.058 12.255 11.267C12.54 11.571 13.851 11.647 21.774 11.894L25.593 12.008L26.011 11.495C26.353 11.039 26.41 10.716 26.41 9.27201V7.58101L28.177 7.63801L29.925 7.69501L29.982 21.831L30.02 35.967L22.952 35.853C16.15 35.739 14.231 35.625 9.91801 35.131L7.96101 34.903L8.11301 32.224C8.18901 30.742 8.26501 24.567 8.26501 18.487V7.42901L9.02501 7.35301C9.44301 7.31501 10.279 7.27701 10.887 7.25801L11.97 7.22001V9.10101Z" fill="black"/>
<path d="M22.686 18.202C19.361 21.47 15.694 24.89 15.542 24.89C15.485 24.89 15.086 24.434 14.649 23.864C14.212 23.294 13.718 22.781 13.566 22.724C13.129 22.553 9.89898 24.491 9.76598 25.004C9.67098 25.365 10.07 25.916 12.046 28.101C14.364 30.647 14.725 30.97 15.295 30.97C15.846 30.97 18.696 28.443 23.427 23.769C26.961 20.273 28.31 18.81 28.31 18.506C28.31 18.088 26.904 15.637 26.505 15.352C26.049 15.01 25.593 15.371 22.686 18.202ZM26.277 17.936C26.581 18.392 26.543 18.43 21.983 22.914C19.456 25.422 16.891 27.835 16.302 28.272L15.219 29.108L14.193 27.987C12.692 26.372 11.97 25.517 11.97 25.384C11.97 25.289 12.996 24.7 13.167 24.7C13.205 24.7 13.661 25.213 14.155 25.84C14.649 26.467 15.219 26.98 15.39 26.98C15.77 26.98 18.753 24.32 22.8 20.368C24.415 18.791 25.802 17.499 25.859 17.48C25.935 17.48 26.125 17.689 26.277 17.936Z" fill="black"/>
</g>
<defs>
<clipPath id="clip0_173_31">
<rect width="38" height="38" fill="white"/>
</clipPath>
</defs>
</svg>
