<svg width="217" height="50" viewBox="0 0 217 50" fill="none" xmlns="http://www.w3.org/2000/svg">
<path d="M46.5234 4.84375C45.9635 5.66406 45.3385 6.64714 44.6484 7.79297C43.9583 8.9388 43.2227 10.2214 42.4414 11.6406C41.7773 12.8255 41.1198 14.0885 40.4688 15.4297C39.8307 16.7578 39.2188 18.0794 38.6328 19.3945C38.0469 20.6966 37.5065 21.9531 37.0117 23.1641C36.5169 24.362 36.0872 25.4232 35.7227 26.3477C35.3581 27.2591 35.0716 27.9948 34.8633 28.5547C34.6549 29.1016 34.5508 29.3815 34.5508 29.3945C34.4206 29.7201 34.1862 29.8828 33.8477 29.8828C33.6784 29.8828 33.5286 29.8307 33.3984 29.7266C33.2682 29.6094 33.1836 29.4661 33.1445 29.2969C33.1445 29.2839 33.0794 29.0104 32.9492 28.4766C32.832 27.9297 32.6693 27.207 32.4609 26.3086C32.2526 25.3971 32.0117 24.3555 31.7383 23.1836C31.4779 21.9987 31.1979 20.7682 30.8984 19.4922C30.612 18.2031 30.319 16.901 30.0195 15.5859C29.7201 14.2708 29.4401 13.0208 29.1797 11.8359C28.3073 14.2969 27.4284 16.4779 26.543 18.3789C25.6706 20.2669 24.7721 21.9141 23.8477 23.3203C22.9232 24.7135 21.9661 25.8854 20.9766 26.8359C20 27.7865 18.9714 28.5547 17.8906 29.1406C16.8229 29.7135 15.6966 30.1237 14.5117 30.3711C13.3398 30.6185 12.0964 30.7422 10.7812 30.7422C10.1042 30.7422 9.38151 30.6641 8.61328 30.5078C7.84505 30.3646 7.08333 30.1367 6.32812 29.8242C5.57292 29.5117 4.85026 29.1211 4.16016 28.6523C3.47005 28.1836 2.85807 27.6302 2.32422 26.9922C1.79036 26.3411 1.36719 25.612 1.05469 24.8047C0.742188 23.9844 0.585938 23.0729 0.585938 22.0703C0.585938 21.0156 0.807292 20.0521 1.25 19.1797C1.69271 18.2943 2.29167 17.5391 3.04688 16.9141C3.80208 16.276 4.67448 15.7812 5.66406 15.4297C6.66667 15.0781 7.72135 14.9023 8.82812 14.9023C9.63542 14.9023 10.3581 14.974 10.9961 15.1172C11.6471 15.2474 12.2201 15.4167 12.7148 15.625C13.2096 15.8333 13.6328 16.0612 13.9844 16.3086C14.3359 16.556 14.6289 16.7839 14.8633 16.9922C15.0977 17.2005 15.2669 17.3828 15.3711 17.5391C15.4753 17.6823 15.5339 17.7539 15.5469 17.7539C15.625 17.8971 15.6641 18.0339 15.6641 18.1641C15.6641 18.3464 15.5924 18.5156 15.4492 18.6719C15.319 18.8281 15.1432 18.9062 14.9219 18.9062C14.6615 18.9062 14.4531 18.7956 14.2969 18.5742C14.2839 18.5612 14.1797 18.444 13.9844 18.2227C13.7891 17.9883 13.4701 17.7344 13.0273 17.4609C12.5846 17.1875 12.0117 16.9401 11.3086 16.7188C10.6185 16.4974 9.77214 16.3867 8.76953 16.3867C7.85807 16.3867 6.99219 16.5299 6.17188 16.8164C5.36458 17.0898 4.65495 17.4805 4.04297 17.9883C3.44401 18.4961 2.96224 19.1016 2.59766 19.8047C2.24609 20.4948 2.07031 21.2565 2.07031 22.0898C2.07031 22.9102 2.20703 23.6589 2.48047 24.3359C2.75391 25.013 3.11849 25.6185 3.57422 26.1523C4.02995 26.6862 4.55729 27.1484 5.15625 27.5391C5.75521 27.9297 6.38021 28.2552 7.03125 28.5156C7.68229 28.763 8.33333 28.9518 8.98438 29.082C9.64844 29.1992 10.2734 29.2578 10.8594 29.2578C11.849 29.2578 12.8125 29.1862 13.75 29.043C14.7005 28.8867 15.6315 28.6003 16.543 28.1836C17.4674 27.7669 18.3724 27.194 19.2578 26.4648C20.1432 25.7357 21.0221 24.7852 21.8945 23.6133C22.7669 22.4414 23.6263 21.0286 24.4727 19.375C25.332 17.7214 26.1914 15.7682 27.0508 13.5156C27.3112 12.8385 27.5651 12.1094 27.8125 11.3281C28.0599 10.5469 28.3138 9.75911 28.5742 8.96484C28.3529 7.81901 28.1901 6.84245 28.0859 6.03516C27.9948 5.22786 27.9492 4.55729 27.9492 4.02344C27.9492 3.45052 27.9948 2.99479 28.0859 2.65625C28.1771 2.31771 28.2943 2.0638 28.4375 1.89453C28.5807 1.71224 28.737 1.60156 28.9062 1.5625C29.0755 1.51042 29.2383 1.48438 29.3945 1.48438C29.5247 1.48438 29.668 1.51042 29.8242 1.5625C29.9935 1.61458 30.1432 1.73177 30.2734 1.91406C30.4167 2.08333 30.5339 2.33724 30.625 2.67578C30.7161 3.01432 30.7617 3.47005 30.7617 4.04297C30.7617 4.66797 30.7031 5.39062 30.5859 6.21094C30.4688 7.03125 30.293 7.9362 30.0586 8.92578C30.2279 9.72005 30.4232 10.6055 30.6445 11.582C30.8659 12.5586 31.0938 13.5742 31.3281 14.6289C31.5625 15.6706 31.8034 16.7383 32.0508 17.832C32.2982 18.9258 32.5391 19.9935 32.7734 21.0352C33.0078 22.0768 33.2292 23.0729 33.4375 24.0234C33.6589 24.974 33.8607 25.8333 34.043 26.6016C34.3945 25.7161 34.8242 24.6484 35.332 23.3984C35.8398 22.1354 36.4062 20.8008 37.0312 19.3945C37.6562 17.9753 38.3138 16.5365 39.0039 15.0781C39.707 13.6068 40.4232 12.2201 41.1523 10.918C42.181 9.06901 43.125 7.48698 43.9844 6.17188C44.8438 4.84375 45.5859 3.75 46.2109 2.89062C46.8359 2.03125 47.3242 1.39974 47.6758 0.996094C48.0404 0.579427 48.2357 0.351562 48.2617 0.3125C48.4049 0.169271 48.5807 0.0976562 48.7891 0.0976562C49.0104 0.0976562 49.1862 0.175781 49.3164 0.332031C49.4596 0.47526 49.5312 0.644531 49.5312 0.839844C49.5312 0.93099 49.5117 1.02214 49.4727 1.11328C49.4727 1.1263 49.3945 1.32161 49.2383 1.69922C49.0951 2.0638 48.9062 2.57161 48.6719 3.22266C48.4505 3.86068 48.2031 4.61589 47.9297 5.48828C47.6562 6.34766 47.3893 7.27865 47.1289 8.28125C46.8685 9.27083 46.6341 10.3125 46.4258 11.4062C46.2305 12.487 46.0872 13.5677 45.9961 14.6484C45.957 15.1432 45.9245 15.6641 45.8984 16.2109C45.8724 16.7448 45.8594 17.2852 45.8594 17.832C45.8594 18.6914 45.8984 19.5573 45.9766 20.4297C46.0547 21.3021 46.1849 22.1419 46.3672 22.9492C46.5495 23.7565 46.7969 24.5182 47.1094 25.2344C47.4219 25.9375 47.806 26.556 48.2617 27.0898C48.7174 27.6237 49.2578 28.0534 49.8828 28.3789C50.5208 28.7044 51.2565 28.8802 52.0898 28.9062C52.2982 28.9193 52.4609 29.0104 52.5781 29.1797C52.7083 29.3359 52.7734 29.5052 52.7734 29.6875C52.7734 29.8698 52.7018 30.0326 52.5586 30.1758C52.4154 30.319 52.2461 30.3906 52.0508 30.3906C51.8424 30.3906 51.6341 30.3711 51.4258 30.332C50.4883 30.2018 49.6615 29.9349 48.9453 29.5312C48.2292 29.1146 47.6107 28.6068 47.0898 28.0078C46.569 27.3958 46.1328 26.7057 45.7812 25.9375C45.4427 25.1562 45.1693 24.3229 44.9609 23.4375C44.7526 22.5521 44.6029 21.6341 44.5117 20.6836C44.4336 19.7201 44.3945 18.75 44.3945 17.7734C44.3945 16.6146 44.4531 15.4557 44.5703 14.2969C44.6875 13.138 44.8438 12.0117 45.0391 10.918C45.2344 9.8112 45.4622 8.74349 45.7227 7.71484C45.9831 6.6862 46.25 5.72917 46.5234 4.84375Z" fill="white"/>
<path d="M56.25 27.8516C56.5234 28.2292 56.875 28.5352 57.3047 28.7695C57.7344 28.9909 58.2617 29.1016 58.8867 29.1016C59.5247 29.1016 60.1042 28.9518 60.625 28.6523C61.1458 28.3398 61.6211 27.9362 62.0508 27.4414C62.4805 26.9466 62.8646 26.3932 63.2031 25.7812C63.5417 25.1693 63.8477 24.5573 64.1211 23.9453C64.1862 23.8021 64.2773 23.6979 64.3945 23.6328C64.5117 23.5547 64.6419 23.5156 64.7852 23.5156C65.0065 23.5156 65.1823 23.5938 65.3125 23.75C65.4557 23.9062 65.5273 24.0755 65.5273 24.2578C65.5273 24.3229 65.5208 24.3815 65.5078 24.4336C65.4948 24.4727 65.4753 24.5182 65.4492 24.5703C64.5508 26.5495 63.5677 28.0404 62.5 29.043C61.4453 30.0456 60.2474 30.5599 58.9062 30.5859C58.0469 30.5859 57.3047 30.4167 56.6797 30.0781C56.0547 29.7526 55.5404 29.3294 55.1367 28.8086C54.7331 28.2747 54.4336 27.6758 54.2383 27.0117C54.043 26.3477 53.9453 25.6836 53.9453 25.0195C53.9453 24.3555 54.0234 23.7435 54.1797 23.1836C54.349 22.6237 54.5833 22.1354 54.8828 21.7188C55.1953 21.3021 55.5599 20.9766 55.9766 20.7422C56.4062 20.5078 56.875 20.3906 57.3828 20.3906C57.6823 20.3906 57.9753 20.4557 58.2617 20.5859C58.5612 20.7031 58.8281 20.8789 59.0625 21.1133C59.2969 21.3346 59.4857 21.6081 59.6289 21.9336C59.7721 22.2591 59.8438 22.6302 59.8438 23.0469C59.8438 23.5807 59.7526 24.082 59.5703 24.5508C59.388 25.0195 59.1341 25.4557 58.8086 25.8594C58.4961 26.263 58.1185 26.6341 57.6758 26.9727C57.2331 27.3112 56.7578 27.6042 56.25 27.8516ZM55.6641 26.582C56.0677 26.4128 56.4323 26.1979 56.7578 25.9375C57.0964 25.6771 57.3828 25.3906 57.6172 25.0781C57.8516 24.7656 58.0339 24.4401 58.1641 24.1016C58.2943 23.75 58.3594 23.3984 58.3594 23.0469C58.3594 22.6562 58.2617 22.3633 58.0664 22.168C57.8711 21.9596 57.6432 21.8555 57.3828 21.8555C57.0312 21.8555 56.7318 21.9531 56.4844 22.1484C56.237 22.3438 56.0352 22.5977 55.8789 22.9102C55.7227 23.2227 55.6055 23.5742 55.5273 23.9648C55.4622 24.3424 55.4297 24.7201 55.4297 25.0977C55.4297 25.332 55.4492 25.5794 55.4883 25.8398C55.5404 26.1003 55.599 26.3477 55.6641 26.582Z" fill="white"/>
<path d="M65.6836 28.3398C65.8919 27.8971 66.1328 27.4219 66.4062 26.9141C66.6797 26.3932 66.9727 25.8659 67.2852 25.332C67.5977 24.7852 67.9297 24.2448 68.2812 23.7109C68.6328 23.1771 68.9974 22.6758 69.375 22.207C69.7526 21.7513 70.1302 21.4258 70.5078 21.2305C70.8984 21.0221 71.263 20.918 71.6016 20.918C71.9401 20.918 72.2331 20.9896 72.4805 21.1328C72.7409 21.263 72.9492 21.4453 73.1055 21.6797C73.2747 21.9141 73.3984 22.1875 73.4766 22.5C73.5677 22.8125 73.6133 23.151 73.6133 23.5156C73.6133 23.8151 73.5807 24.2188 73.5156 24.7266C73.4635 25.2214 73.4375 25.7422 73.4375 26.2891C73.4375 26.6016 73.4505 26.9141 73.4766 27.2266C73.5156 27.526 73.5742 27.7995 73.6523 28.0469C73.7435 28.2812 73.8737 28.4766 74.043 28.6328C74.2122 28.776 74.4336 28.8477 74.707 28.8477C75.0195 28.8477 75.332 28.763 75.6445 28.5938C75.957 28.4115 76.263 28.1771 76.5625 27.8906C76.862 27.5911 77.1484 27.2656 77.4219 26.9141C77.6953 26.5495 77.9427 26.1914 78.1641 25.8398C78.3854 25.4753 78.5807 25.1302 78.75 24.8047C78.9193 24.4661 79.056 24.1862 79.1602 23.9648C79.2904 23.6654 79.5182 23.5156 79.8438 23.5156C80.0651 23.5156 80.2409 23.5938 80.3711 23.75C80.5013 23.9062 80.5664 24.0755 80.5664 24.2578C80.5664 24.362 80.5469 24.4596 80.5078 24.5508C80.4557 24.6549 80.3516 24.8698 80.1953 25.1953C80.0521 25.5208 79.8503 25.8984 79.5898 26.3281C79.3424 26.7578 79.0495 27.207 78.7109 27.6758C78.3724 28.1445 77.9948 28.5807 77.5781 28.9844C77.1745 29.375 76.7318 29.7005 76.25 29.9609C75.7812 30.2083 75.2865 30.332 74.7656 30.332C74.1667 30.332 73.6849 30.2083 73.3203 29.9609C72.9557 29.7005 72.6693 29.375 72.4609 28.9844C72.2656 28.5938 72.1289 28.1576 72.0508 27.6758C71.9857 27.194 71.9531 26.7253 71.9531 26.2695C71.9531 26.0352 71.9596 25.7878 71.9727 25.5273C71.9987 25.2539 72.0247 24.987 72.0508 24.7266C72.0768 24.4661 72.0964 24.2253 72.1094 24.0039C72.1354 23.7695 72.1484 23.5742 72.1484 23.418C72.1484 23.0143 72.0898 22.7409 71.9727 22.5977C71.8685 22.4544 71.7448 22.3828 71.6016 22.3828C71.3932 22.3828 71.1523 22.5065 70.8789 22.7539C70.6185 22.9883 70.3385 23.3008 70.0391 23.6914C69.7526 24.082 69.4596 24.5247 69.1602 25.0195C68.8737 25.5013 68.5938 25.9831 68.3203 26.4648C68.0469 26.9466 67.7995 27.4089 67.5781 27.8516C67.3568 28.2812 67.1745 28.6393 67.0312 28.9258C66.7578 29.4727 66.4779 29.8372 66.1914 30.0195C65.918 30.2148 65.6706 30.3125 65.4492 30.3125C65.0456 30.3125 64.7331 30.1562 64.5117 29.8438C64.3034 29.5182 64.1992 29.1276 64.1992 28.6719V27.4414C64.1992 24.9805 64.1992 22.6367 64.1992 20.4102C64.2122 18.1706 64.2448 16.0938 64.2969 14.1797C64.362 12.2526 64.4596 10.5143 64.5898 8.96484C64.7331 7.40234 64.9414 6.07422 65.2148 4.98047C65.4883 3.8737 65.8333 3.02083 66.25 2.42188C66.6797 1.82292 67.2135 1.52344 67.8516 1.52344C68.3984 1.52344 68.8607 1.67318 69.2383 1.97266C69.6159 2.27214 69.9219 2.68229 70.1562 3.20312C70.3906 3.71094 70.5599 4.3099 70.6641 5C70.7682 5.67708 70.8203 6.39323 70.8203 7.14844C70.8203 8.6849 70.6771 10.1953 70.3906 11.6797C70.1172 13.151 69.7461 14.5898 69.2773 15.9961C68.8086 17.4023 68.2617 18.776 67.6367 20.1172C67.0117 21.4453 66.3542 22.7409 65.6641 24.0039C65.6641 24.2383 65.6641 24.5182 65.6641 24.8438C65.6641 25.1693 65.6641 25.4948 65.6641 25.8203C65.6641 26.1458 65.6641 26.4518 65.6641 26.7383C65.6641 27.0247 65.6641 27.2526 65.6641 27.4219L65.6836 28.3398ZM65.6836 21.1328C66.2305 19.9349 66.7253 18.7695 67.168 17.6367C67.6237 16.4909 68.0078 15.3516 68.3203 14.2188C68.6458 13.0859 68.8997 11.9401 69.082 10.7812C69.2643 9.60938 69.3555 8.39193 69.3555 7.12891C69.3555 6.92057 69.3424 6.58854 69.3164 6.13281C69.3034 5.67708 69.2448 5.21484 69.1406 4.74609C69.0495 4.27734 68.8997 3.86719 68.6914 3.51562C68.4961 3.16406 68.2161 2.98828 67.8516 2.98828C67.5651 2.98828 67.3177 3.18359 67.1094 3.57422C66.901 3.95182 66.7188 4.47266 66.5625 5.13672C66.4062 5.78776 66.276 6.54948 66.1719 7.42188C66.0677 8.29427 65.9831 9.21875 65.918 10.1953C65.8529 11.1719 65.8008 12.1745 65.7617 13.2031C65.7357 14.2318 65.7161 15.2344 65.7031 16.2109C65.6901 17.1745 65.6836 18.0794 65.6836 18.9258C65.6836 19.7721 65.6836 20.5078 65.6836 21.1328Z" fill="white"/>
<path d="M81.5234 27.8516C81.7969 28.2292 82.1484 28.5352 82.5781 28.7695C83.0078 28.9909 83.5352 29.1016 84.1602 29.1016C84.7982 29.1016 85.3776 28.9518 85.8984 28.6523C86.4193 28.3398 86.8945 27.9362 87.3242 27.4414C87.7539 26.9466 88.138 26.3932 88.4766 25.7812C88.8151 25.1693 89.1211 24.5573 89.3945 23.9453C89.4596 23.8021 89.5508 23.6979 89.668 23.6328C89.7852 23.5547 89.9154 23.5156 90.0586 23.5156C90.2799 23.5156 90.4557 23.5938 90.5859 23.75C90.7292 23.9062 90.8008 24.0755 90.8008 24.2578C90.8008 24.3229 90.7943 24.3815 90.7812 24.4336C90.7682 24.4727 90.7487 24.5182 90.7227 24.5703C89.8242 26.5495 88.8411 28.0404 87.7734 29.043C86.7188 30.0456 85.5208 30.5599 84.1797 30.5859C83.3203 30.5859 82.5781 30.4167 81.9531 30.0781C81.3281 29.7526 80.8138 29.3294 80.4102 28.8086C80.0065 28.2747 79.707 27.6758 79.5117 27.0117C79.3164 26.3477 79.2188 25.6836 79.2188 25.0195C79.2188 24.3555 79.2969 23.7435 79.4531 23.1836C79.6224 22.6237 79.8568 22.1354 80.1562 21.7188C80.4688 21.3021 80.8333 20.9766 81.25 20.7422C81.6797 20.5078 82.1484 20.3906 82.6562 20.3906C82.9557 20.3906 83.2487 20.4557 83.5352 20.5859C83.8346 20.7031 84.1016 20.8789 84.3359 21.1133C84.5703 21.3346 84.7591 21.6081 84.9023 21.9336C85.0456 22.2591 85.1172 22.6302 85.1172 23.0469C85.1172 23.5807 85.026 24.082 84.8438 24.5508C84.6615 25.0195 84.4076 25.4557 84.082 25.8594C83.7695 26.263 83.3919 26.6341 82.9492 26.9727C82.5065 27.3112 82.0312 27.6042 81.5234 27.8516ZM80.9375 26.582C81.3411 26.4128 81.7057 26.1979 82.0312 25.9375C82.3698 25.6771 82.6562 25.3906 82.8906 25.0781C83.125 24.7656 83.3073 24.4401 83.4375 24.1016C83.5677 23.75 83.6328 23.3984 83.6328 23.0469C83.6328 22.6562 83.5352 22.3633 83.3398 22.168C83.1445 21.9596 82.9167 21.8555 82.6562 21.8555C82.3047 21.8555 82.0052 21.9531 81.7578 22.1484C81.5104 22.3438 81.3086 22.5977 81.1523 22.9102C80.9961 23.2227 80.8789 23.5742 80.8008 23.9648C80.7357 24.3424 80.7031 24.7201 80.7031 25.0977C80.7031 25.332 80.7227 25.5794 80.7617 25.8398C80.8138 26.1003 80.8724 26.3477 80.9375 26.582Z" fill="white"/>
<path d="M96.9922 24.3164C97.6302 27.3242 98.5547 28.8281 99.7656 28.8281C100.234 28.8281 100.684 28.6589 101.113 28.3203C101.543 27.9688 101.94 27.5456 102.305 27.0508C102.682 26.543 103.014 26.0091 103.301 25.4492C103.587 24.8893 103.822 24.401 104.004 23.9844C104.134 23.6719 104.362 23.5156 104.688 23.5156C104.896 23.5156 105.072 23.5938 105.215 23.75C105.358 23.9062 105.43 24.0755 105.43 24.2578C105.43 24.362 105.41 24.4531 105.371 24.5312C105.28 24.7526 105.143 25.0521 104.961 25.4297C104.792 25.7943 104.577 26.1914 104.316 26.6211C104.069 27.0378 103.789 27.4674 103.477 27.9102C103.164 28.3529 102.819 28.75 102.441 29.1016C102.064 29.4531 101.66 29.7461 101.23 29.9805C100.814 30.2018 100.371 30.3125 99.9023 30.3125C99.0299 30.3125 98.2812 30.013 97.6562 29.4141C97.0312 28.8021 96.4909 27.7995 96.0352 26.4062C95.4102 27.7344 94.7786 28.6979 94.1406 29.2969C93.5026 29.8958 92.8125 30.1953 92.0703 30.1953C91.6797 30.1953 91.3021 30.1302 90.9375 30C90.5729 29.8828 90.2539 29.681 89.9805 29.3945C89.707 29.1081 89.4857 28.7435 89.3164 28.3008C89.1471 27.8451 89.0625 27.2917 89.0625 26.6406C89.0625 25.7422 89.2188 24.9154 89.5312 24.1602C89.8438 23.4049 90.2474 22.7604 90.7422 22.2266C91.237 21.6797 91.7839 21.2565 92.3828 20.957C92.9948 20.6576 93.6003 20.5078 94.1992 20.5078C94.3945 20.5078 94.5638 20.5794 94.707 20.7227C94.8503 20.8529 94.9219 21.0221 94.9219 21.2305C94.9219 21.4128 94.8633 21.5755 94.7461 21.7188C94.6289 21.862 94.4727 21.9466 94.2773 21.9727C93.8867 22.0247 93.4701 22.1484 93.0273 22.3438C92.5846 22.5391 92.1745 22.8255 91.7969 23.2031C91.4323 23.5677 91.1263 24.0365 90.8789 24.6094C90.6445 25.1823 90.5273 25.8659 90.5273 26.6602C90.5273 27.3112 90.6576 27.819 90.918 28.1836C91.1914 28.5482 91.582 28.7305 92.0898 28.7305C92.2982 28.7305 92.5195 28.6784 92.7539 28.5742C92.9883 28.457 93.2357 28.2357 93.4961 27.9102C93.7695 27.5846 94.0625 27.1224 94.375 26.5234C94.7005 25.9245 95.0586 25.1367 95.4492 24.1602C95.2279 23.0143 95.026 21.6927 94.8438 20.1953C94.6615 18.6979 94.5703 17.0247 94.5703 15.1758C94.5703 14.3685 94.5964 13.5286 94.6484 12.6562C94.7005 11.7708 94.7852 10.9115 94.9023 10.0781C95.0195 9.23177 95.1758 8.43099 95.3711 7.67578C95.5664 6.92057 95.8008 6.25651 96.0742 5.68359C96.3607 5.11068 96.6927 4.66146 97.0703 4.33594C97.4479 3.9974 97.8776 3.82812 98.3594 3.82812C98.7891 3.82812 99.1536 3.94531 99.4531 4.17969C99.7526 4.41406 99.9935 4.73958 100.176 5.15625C100.371 5.57292 100.514 6.07422 100.605 6.66016C100.697 7.24609 100.742 7.89062 100.742 8.59375C100.742 10.1042 100.612 11.6146 100.352 13.125C100.091 14.6354 99.7656 16.0807 99.375 17.4609C98.9974 18.8411 98.5938 20.1172 98.1641 21.2891C97.7344 22.4609 97.3438 23.4701 96.9922 24.3164ZM99.2773 8.57422C99.2773 8.2487 99.2643 7.89714 99.2383 7.51953C99.2253 7.14193 99.1797 6.79036 99.1016 6.46484C99.0365 6.1263 98.9453 5.84635 98.8281 5.625C98.7109 5.40365 98.5547 5.29297 98.3594 5.29297C98.0339 5.29297 97.7279 5.57943 97.4414 6.15234C97.168 6.72526 96.9271 7.48047 96.7188 8.41797C96.5104 9.34245 96.3411 10.3971 96.2109 11.582C96.0938 12.7539 96.0352 13.9388 96.0352 15.1367C96.0352 16.2826 96.0807 17.4284 96.1719 18.5742C96.263 19.7201 96.3672 20.7422 96.4844 21.6406C96.862 20.638 97.2201 19.6094 97.5586 18.5547C97.8971 17.487 98.1901 16.3997 98.4375 15.293C98.6979 14.1862 98.8997 13.0729 99.043 11.9531C99.1992 10.8203 99.2773 9.69401 99.2773 8.57422Z" fill="white"/>
<path d="M107.207 14.668C107.207 15.1628 107.031 15.5859 106.68 15.9375C106.341 16.276 105.924 16.4453 105.43 16.4453C104.935 16.4453 104.512 16.276 104.16 15.9375C103.822 15.5859 103.652 15.1628 103.652 14.668C103.652 14.4206 103.698 14.1927 103.789 13.9844C103.88 13.763 104.004 13.5742 104.16 13.418C104.329 13.2487 104.518 13.1185 104.727 13.0273C104.948 12.9362 105.182 12.8906 105.43 12.8906C105.677 12.8906 105.905 12.9362 106.113 13.0273C106.335 13.1185 106.523 13.2487 106.68 13.418C106.849 13.5742 106.979 13.763 107.07 13.9844C107.161 14.1927 107.207 14.4206 107.207 14.668ZM104.043 26.1133C104.043 24.2383 104.16 22.3698 104.395 20.5078C104.421 20.3255 104.499 20.1693 104.629 20.0391C104.772 19.8958 104.954 19.8242 105.176 19.8242C105.371 19.8242 105.534 19.9023 105.664 20.0586C105.794 20.2018 105.859 20.3711 105.859 20.5664C105.859 20.6445 105.84 20.8789 105.801 21.2695C105.775 21.6602 105.736 22.1289 105.684 22.6758C105.645 23.2096 105.605 23.7826 105.566 24.3945C105.54 24.9935 105.527 25.5469 105.527 26.0547C105.527 26.7448 105.592 27.3047 105.723 27.7344C105.866 28.151 106.042 28.4766 106.25 28.7109C106.471 28.9453 106.699 29.1016 106.934 29.1797C107.181 29.2578 107.415 29.2969 107.637 29.2969C108.001 29.2969 108.379 29.1667 108.77 28.9062C109.16 28.6458 109.557 28.2812 109.961 27.8125C110.378 27.3438 110.794 26.7839 111.211 26.1328C111.628 25.4688 112.038 24.7331 112.441 23.9258C112.507 23.7956 112.598 23.6979 112.715 23.6328C112.832 23.5547 112.962 23.5156 113.105 23.5156C113.314 23.5156 113.483 23.5938 113.613 23.75C113.757 23.9062 113.828 24.0755 113.828 24.2578C113.828 24.388 113.802 24.4987 113.75 24.5898C113.594 24.8893 113.398 25.2539 113.164 25.6836C112.93 26.1133 112.663 26.556 112.363 27.0117C112.064 27.4674 111.732 27.9232 111.367 28.3789C111.016 28.8216 110.638 29.2253 110.234 29.5898C109.831 29.9414 109.408 30.2279 108.965 30.4492C108.522 30.6706 108.073 30.7812 107.617 30.7812C107.031 30.7812 106.517 30.6576 106.074 30.4102C105.632 30.1628 105.254 29.8307 104.941 29.4141C104.642 28.9974 104.414 28.5091 104.258 27.9492C104.115 27.3763 104.043 26.7643 104.043 26.1133ZM106.113 14.668C106.113 14.4857 106.042 14.3294 105.898 14.1992C105.768 14.056 105.612 13.9844 105.43 13.9844C105.247 13.9844 105.091 14.056 104.961 14.1992C104.831 14.3294 104.766 14.4857 104.766 14.668C104.766 14.8503 104.831 15.0065 104.961 15.1367C105.091 15.2669 105.247 15.332 105.43 15.332C105.612 15.332 105.768 15.2669 105.898 15.1367C106.042 15.0065 106.113 14.8503 106.113 14.668Z" fill="white"/>
<path d="M155.898 9.49219C155.859 9.67448 155.775 9.81771 155.645 9.92188C155.514 10.026 155.371 10.0781 155.215 10.0781C154.98 10.0781 154.792 10.0065 154.648 9.86328C154.505 9.70703 154.434 9.53125 154.434 9.33594C154.434 9.14062 154.453 8.95182 154.492 8.76953C154.531 8.57422 154.551 8.38542 154.551 8.20312C154.551 7.2526 154.258 6.39974 153.672 5.64453C153.086 4.88932 152.253 4.25781 151.172 3.75C150.104 3.22917 148.802 2.83203 147.266 2.55859C145.729 2.28516 144.017 2.14844 142.129 2.14844C140.684 2.14844 139.225 2.24609 137.754 2.44141C136.296 2.6237 134.889 2.89714 133.535 3.26172C132.194 3.61328 130.938 4.0625 129.766 4.60938C128.594 5.14323 127.572 5.76823 126.699 6.48438C125.84 7.1875 125.163 7.97526 124.668 8.84766C124.173 9.70703 123.926 10.651 123.926 11.6797C123.926 12.474 124.095 13.1771 124.434 13.7891C124.785 14.388 125.26 14.9154 125.859 15.3711C126.458 15.8138 127.161 16.1979 127.969 16.5234C128.789 16.8359 129.674 17.1029 130.625 17.3242C131.576 17.5326 132.565 17.7083 133.594 17.8516C134.622 17.9818 135.658 18.0924 136.699 18.1836L139.707 18.4375C141.204 18.5677 142.546 18.7044 143.73 18.8477C144.915 18.9909 145.957 19.1732 146.855 19.3945C148.353 19.7721 149.46 20.3125 150.176 21.0156C150.892 21.7188 151.25 22.6562 151.25 23.8281C151.25 24.9609 150.938 25.957 150.312 26.8164C149.688 27.6758 148.835 28.3984 147.754 28.9844C146.673 29.5703 145.41 30.013 143.965 30.3125C142.52 30.612 140.97 30.7617 139.316 30.7617C137.52 30.7617 135.938 30.638 134.57 30.3906C133.216 30.1562 132.077 29.8958 131.152 29.6094C130.241 29.3099 129.544 29.0365 129.062 28.7891C128.581 28.5417 128.32 28.4049 128.281 28.3789C128.047 28.2487 127.93 28.0404 127.93 27.7539C127.93 27.5326 128.008 27.3568 128.164 27.2266C128.32 27.0833 128.49 27.0117 128.672 27.0117C128.815 27.0117 128.945 27.0508 129.062 27.1289C129.076 27.1289 129.297 27.2461 129.727 27.4805C130.169 27.7018 130.82 27.9492 131.68 28.2227C132.552 28.4961 133.626 28.7435 134.902 28.9648C136.178 29.1862 137.663 29.2969 139.355 29.2969C141.035 29.2969 142.52 29.1602 143.809 28.8867C145.098 28.6133 146.178 28.2357 147.051 27.7539C147.936 27.2591 148.6 26.6862 149.043 26.0352C149.499 25.3711 149.727 24.6549 149.727 23.8867C149.727 23.431 149.642 23.0404 149.473 22.7148C149.316 22.3763 149.095 22.0898 148.809 21.8555C148.522 21.6081 148.177 21.3997 147.773 21.2305C147.383 21.0612 146.953 20.918 146.484 20.8008C145.99 20.6706 145.456 20.5599 144.883 20.4688C144.323 20.3776 143.743 20.2995 143.145 20.2344C142.546 20.1693 141.94 20.1107 141.328 20.0586C140.729 20.0065 140.137 19.9544 139.551 19.9023L136.543 19.6484C134.173 19.4531 132.103 19.1536 130.332 18.75C128.574 18.3333 127.109 17.806 125.938 17.168C124.766 16.5169 123.887 15.7422 123.301 14.8438C122.715 13.9453 122.422 12.8971 122.422 11.6992C122.422 10.4753 122.695 9.35547 123.242 8.33984C123.802 7.3112 124.557 6.38672 125.508 5.56641C126.471 4.74609 127.591 4.03646 128.867 3.4375C130.156 2.82552 131.53 2.31771 132.988 1.91406C134.447 1.51042 135.957 1.21094 137.52 1.01562C139.082 0.807292 140.618 0.703125 142.129 0.703125C144.017 0.703125 145.658 0.820312 147.051 1.05469C148.457 1.27604 149.655 1.56901 150.645 1.93359C151.647 2.28516 152.467 2.6888 153.105 3.14453C153.743 3.60026 154.258 4.04948 154.648 4.49219C155.573 5.57292 156.035 6.80339 156.035 8.18359C156.035 8.63932 155.99 9.07552 155.898 9.49219Z" fill="white"/>
<path d="M158.223 28.3398C158.431 27.8971 158.672 27.4219 158.945 26.9141C159.219 26.3932 159.512 25.8659 159.824 25.332C160.137 24.7852 160.469 24.2448 160.82 23.7109C161.172 23.1771 161.536 22.6758 161.914 22.207C162.292 21.7513 162.669 21.4258 163.047 21.2305C163.438 21.0221 163.802 20.918 164.141 20.918C164.479 20.918 164.772 20.9896 165.02 21.1328C165.28 21.263 165.488 21.4453 165.645 21.6797C165.814 21.9141 165.938 22.1875 166.016 22.5C166.107 22.8125 166.152 23.151 166.152 23.5156C166.152 23.8151 166.12 24.2188 166.055 24.7266C166.003 25.2214 165.977 25.7422 165.977 26.2891C165.977 26.6016 165.99 26.9141 166.016 27.2266C166.055 27.526 166.113 27.7995 166.191 28.0469C166.283 28.2812 166.413 28.4766 166.582 28.6328C166.751 28.776 166.973 28.8477 167.246 28.8477C167.559 28.8477 167.871 28.763 168.184 28.5938C168.496 28.4115 168.802 28.1771 169.102 27.8906C169.401 27.5911 169.688 27.2656 169.961 26.9141C170.234 26.5495 170.482 26.1914 170.703 25.8398C170.924 25.4753 171.12 25.1302 171.289 24.8047C171.458 24.4661 171.595 24.1862 171.699 23.9648C171.829 23.6654 172.057 23.5156 172.383 23.5156C172.604 23.5156 172.78 23.5938 172.91 23.75C173.04 23.9062 173.105 24.0755 173.105 24.2578C173.105 24.362 173.086 24.4596 173.047 24.5508C172.995 24.6549 172.891 24.8698 172.734 25.1953C172.591 25.5208 172.389 25.8984 172.129 26.3281C171.882 26.7578 171.589 27.207 171.25 27.6758C170.911 28.1445 170.534 28.5807 170.117 28.9844C169.714 29.375 169.271 29.7005 168.789 29.9609C168.32 30.2083 167.826 30.332 167.305 30.332C166.706 30.332 166.224 30.2083 165.859 29.9609C165.495 29.7005 165.208 29.375 165 28.9844C164.805 28.5938 164.668 28.1576 164.59 27.6758C164.525 27.194 164.492 26.7253 164.492 26.2695C164.492 26.0352 164.499 25.7878 164.512 25.5273C164.538 25.2539 164.564 24.987 164.59 24.7266C164.616 24.4661 164.635 24.2253 164.648 24.0039C164.674 23.7695 164.688 23.5742 164.688 23.418C164.688 23.0143 164.629 22.7409 164.512 22.5977C164.408 22.4544 164.284 22.3828 164.141 22.3828C163.932 22.3828 163.691 22.5065 163.418 22.7539C163.158 22.9883 162.878 23.3008 162.578 23.6914C162.292 24.082 161.999 24.5247 161.699 25.0195C161.413 25.5013 161.133 25.9831 160.859 26.4648C160.586 26.9466 160.339 27.4089 160.117 27.8516C159.896 28.2812 159.714 28.6393 159.57 28.9258C159.297 29.4727 159.017 29.8372 158.73 30.0195C158.457 30.2148 158.21 30.3125 157.988 30.3125C157.585 30.3125 157.272 30.1562 157.051 29.8438C156.842 29.5182 156.738 29.1276 156.738 28.6719V27.4414C156.738 24.9805 156.738 22.6367 156.738 20.4102C156.751 18.1706 156.784 16.0938 156.836 14.1797C156.901 12.2526 156.999 10.5143 157.129 8.96484C157.272 7.40234 157.48 6.07422 157.754 4.98047C158.027 3.8737 158.372 3.02083 158.789 2.42188C159.219 1.82292 159.753 1.52344 160.391 1.52344C160.938 1.52344 161.4 1.67318 161.777 1.97266C162.155 2.27214 162.461 2.68229 162.695 3.20312C162.93 3.71094 163.099 4.3099 163.203 5C163.307 5.67708 163.359 6.39323 163.359 7.14844C163.359 8.6849 163.216 10.1953 162.93 11.6797C162.656 13.151 162.285 14.5898 161.816 15.9961C161.348 17.4023 160.801 18.776 160.176 20.1172C159.551 21.4453 158.893 22.7409 158.203 24.0039C158.203 24.2383 158.203 24.5182 158.203 24.8438C158.203 25.1693 158.203 25.4948 158.203 25.8203C158.203 26.1458 158.203 26.4518 158.203 26.7383C158.203 27.0247 158.203 27.2526 158.203 27.4219L158.223 28.3398ZM158.223 21.1328C158.77 19.9349 159.264 18.7695 159.707 17.6367C160.163 16.4909 160.547 15.3516 160.859 14.2188C161.185 13.0859 161.439 11.9401 161.621 10.7812C161.803 9.60938 161.895 8.39193 161.895 7.12891C161.895 6.92057 161.882 6.58854 161.855 6.13281C161.842 5.67708 161.784 5.21484 161.68 4.74609C161.589 4.27734 161.439 3.86719 161.23 3.51562C161.035 3.16406 160.755 2.98828 160.391 2.98828C160.104 2.98828 159.857 3.18359 159.648 3.57422C159.44 3.95182 159.258 4.47266 159.102 5.13672C158.945 5.78776 158.815 6.54948 158.711 7.42188C158.607 8.29427 158.522 9.21875 158.457 10.1953C158.392 11.1719 158.34 12.1745 158.301 13.2031C158.275 14.2318 158.255 15.2344 158.242 16.2109C158.229 17.1745 158.223 18.0794 158.223 18.9258C158.223 19.7721 158.223 20.5078 158.223 21.1328Z" fill="white"/>
<path d="M186.816 24.5508C186.764 24.6549 186.654 24.8763 186.484 25.2148C186.328 25.5404 186.12 25.918 185.859 26.3477C185.612 26.7773 185.319 27.2266 184.98 27.6953C184.642 28.1641 184.264 28.5938 183.848 28.9844C183.431 29.375 182.982 29.7005 182.5 29.9609C182.018 30.2083 181.51 30.332 180.977 30.332C180.221 30.332 179.583 30.0911 179.062 29.6094C178.555 29.1276 178.184 28.5221 177.949 27.793C177.507 28.5352 176.979 29.1276 176.367 29.5703C175.755 30 175.143 30.2148 174.531 30.2148C174.049 30.2148 173.613 30.1302 173.223 29.9609C172.832 29.7786 172.5 29.5312 172.227 29.2188C171.953 28.8932 171.738 28.5156 171.582 28.0859C171.439 27.6562 171.367 27.1875 171.367 26.6797C171.367 25.6641 171.536 24.7721 171.875 24.0039C172.227 23.2227 172.669 22.5716 173.203 22.0508C173.737 21.5299 174.323 21.1393 174.961 20.8789C175.612 20.6185 176.237 20.4883 176.836 20.4883C177.24 20.4883 177.611 20.5469 177.949 20.6641C178.288 20.7682 178.574 20.8854 178.809 21.0156C179.056 21.1458 179.245 21.2695 179.375 21.3867C179.505 21.4909 179.577 21.5495 179.59 21.5625C179.733 21.7318 179.805 21.9076 179.805 22.0898C179.805 22.2852 179.733 22.4609 179.59 22.6172C179.447 22.7604 179.277 22.832 179.082 22.832C178.874 22.832 178.698 22.7604 178.555 22.6172C178.529 22.5911 178.47 22.5456 178.379 22.4805C178.288 22.4023 178.164 22.3242 178.008 22.2461C177.852 22.168 177.663 22.1029 177.441 22.0508C177.233 21.9857 176.992 21.9531 176.719 21.9531C176.315 21.9531 175.885 22.0443 175.43 22.2266C174.974 22.4089 174.557 22.6953 174.18 23.0859C173.802 23.4635 173.483 23.9453 173.223 24.5312C172.975 25.1042 172.852 25.7878 172.852 26.582C172.852 26.8294 172.878 27.0833 172.93 27.3438C172.982 27.5911 173.073 27.819 173.203 28.0273C173.333 28.2357 173.509 28.4049 173.73 28.5352C173.952 28.6654 174.225 28.7305 174.551 28.7305C174.785 28.7305 175.052 28.6523 175.352 28.4961C175.664 28.3398 175.957 28.099 176.23 27.7734C176.517 27.4479 176.771 27.0378 176.992 26.543C177.227 26.0482 177.389 25.4622 177.48 24.7852C177.507 24.6029 177.591 24.4531 177.734 24.3359C177.878 24.2057 178.047 24.1406 178.242 24.1406C178.424 24.1406 178.581 24.2122 178.711 24.3555C178.854 24.4987 178.932 24.6615 178.945 24.8438C178.958 25.0911 178.984 25.4427 179.023 25.8984C179.062 26.3411 179.147 26.7839 179.277 27.2266C179.421 27.6693 179.629 28.0534 179.902 28.3789C180.176 28.7044 180.553 28.8672 181.035 28.8672C181.348 28.8672 181.654 28.7826 181.953 28.6133C182.266 28.444 182.565 28.2227 182.852 27.9492C183.151 27.6628 183.431 27.3438 183.691 26.9922C183.965 26.6276 184.212 26.263 184.434 25.8984C184.655 25.5339 184.85 25.1823 185.02 24.8438C185.189 24.5052 185.332 24.2122 185.449 23.9648C185.514 23.8216 185.605 23.7109 185.723 23.6328C185.853 23.5547 185.99 23.5156 186.133 23.5156C186.354 23.5156 186.53 23.6003 186.66 23.7695C186.803 23.9258 186.875 24.0951 186.875 24.2773C186.875 24.3685 186.855 24.4596 186.816 24.5508Z" fill="white"/>
<path d="M187.52 21.9727C187.467 22.3242 187.402 22.6562 187.324 22.9688C187.246 23.2682 187.168 23.5352 187.09 23.7695C187.025 23.9909 186.966 24.1732 186.914 24.3164C186.862 24.4596 186.829 24.5378 186.816 24.5508C186.686 24.8503 186.458 25 186.133 25C185.951 25 185.781 24.9349 185.625 24.8047C185.469 24.6615 185.391 24.4857 185.391 24.2773C185.391 24.1992 185.404 24.1406 185.43 24.1016C185.456 24.0625 185.495 23.9844 185.547 23.8672C185.599 23.75 185.664 23.5547 185.742 23.2812C185.82 23.0078 185.918 22.5846 186.035 22.0117C185.814 22.0117 185.586 22.0052 185.352 21.9922C185.117 21.9792 184.902 21.9336 184.707 21.8555C184.499 21.7773 184.329 21.6536 184.199 21.4844C184.069 21.3151 184.004 21.0807 184.004 20.7812C184.004 20.5599 184.069 20.2604 184.199 19.8828C184.316 19.5052 184.479 19.1341 184.688 18.7695C184.896 18.4049 185.13 18.0924 185.391 17.832C185.651 17.5586 185.911 17.4219 186.172 17.4219C186.471 17.4219 186.712 17.5326 186.895 17.7539C187.09 17.9753 187.24 18.2487 187.344 18.5742C187.448 18.8867 187.52 19.2188 187.559 19.5703C187.611 19.9219 187.637 20.2279 187.637 20.4883C187.858 20.4883 188.073 20.4883 188.281 20.4883C188.503 20.4753 188.711 20.4688 188.906 20.4688C189.648 20.4688 190.215 20.6315 190.605 20.957C190.996 21.2826 191.191 21.8164 191.191 22.5586C191.191 22.8581 191.172 23.1706 191.133 23.4961C191.094 23.8216 191.048 24.1602 190.996 24.5117C190.944 24.8503 190.898 25.1888 190.859 25.5273C190.82 25.8659 190.801 26.1979 190.801 26.5234C190.801 26.9922 190.866 27.3828 190.996 27.6953C191.126 27.9948 191.289 28.2357 191.484 28.418C191.68 28.6003 191.888 28.7305 192.109 28.8086C192.331 28.8737 192.533 28.9062 192.715 28.9062C193.275 28.9062 193.802 28.724 194.297 28.3594C194.792 27.9948 195.247 27.5586 195.664 27.0508C196.081 26.5299 196.452 25.9831 196.777 25.4102C197.116 24.8372 197.396 24.3359 197.617 23.9062C197.682 23.7891 197.773 23.6979 197.891 23.6328C198.008 23.5677 198.132 23.5352 198.262 23.5352C198.496 23.5352 198.678 23.6133 198.809 23.7695C198.939 23.9128 199.004 24.0755 199.004 24.2578C199.004 24.388 198.978 24.5052 198.926 24.6094C198.626 25.1432 198.275 25.7487 197.871 26.4258C197.48 27.0898 197.031 27.7148 196.523 28.3008C196.016 28.8867 195.443 29.3815 194.805 29.7852C194.18 30.1888 193.49 30.3906 192.734 30.3906C192.266 30.3906 191.823 30.2995 191.406 30.1172C190.99 29.9479 190.625 29.7005 190.312 29.375C190.013 29.0365 189.772 28.6263 189.59 28.1445C189.408 27.6497 189.316 27.0964 189.316 26.4844C189.316 25.8333 189.382 25.1888 189.512 24.5508C189.642 23.8997 189.707 23.2812 189.707 22.6953C189.707 22.4479 189.648 22.2656 189.531 22.1484C189.427 22.0182 189.186 21.9531 188.809 21.9531C188.626 21.9531 188.424 21.9531 188.203 21.9531C187.995 21.9531 187.767 21.9596 187.52 21.9727ZM186.211 20.5273C186.211 20.4362 186.204 20.319 186.191 20.1758C186.191 20.0195 186.178 19.8698 186.152 19.7266C186.139 19.5833 186.113 19.4596 186.074 19.3555C186.048 19.2513 186.016 19.1992 185.977 19.1992C185.938 19.1992 185.885 19.2513 185.82 19.3555C185.768 19.4466 185.71 19.5638 185.645 19.707C185.579 19.8372 185.521 19.9805 185.469 20.1367C185.417 20.293 185.378 20.4232 185.352 20.5273H186.211Z" fill="white"/>
<path d="M200.801 14.668C200.801 15.1628 200.625 15.5859 200.273 15.9375C199.935 16.276 199.518 16.4453 199.023 16.4453C198.529 16.4453 198.105 16.276 197.754 15.9375C197.415 15.5859 197.246 15.1628 197.246 14.668C197.246 14.4206 197.292 14.1927 197.383 13.9844C197.474 13.763 197.598 13.5742 197.754 13.418C197.923 13.2487 198.112 13.1185 198.32 13.0273C198.542 12.9362 198.776 12.8906 199.023 12.8906C199.271 12.8906 199.499 12.9362 199.707 13.0273C199.928 13.1185 200.117 13.2487 200.273 13.418C200.443 13.5742 200.573 13.763 200.664 13.9844C200.755 14.1927 200.801 14.4206 200.801 14.668ZM197.637 26.1133C197.637 24.2383 197.754 22.3698 197.988 20.5078C198.014 20.3255 198.092 20.1693 198.223 20.0391C198.366 19.8958 198.548 19.8242 198.77 19.8242C198.965 19.8242 199.128 19.9023 199.258 20.0586C199.388 20.2018 199.453 20.3711 199.453 20.5664C199.453 20.6445 199.434 20.8789 199.395 21.2695C199.368 21.6602 199.329 22.1289 199.277 22.6758C199.238 23.2096 199.199 23.7826 199.16 24.3945C199.134 24.9935 199.121 25.5469 199.121 26.0547C199.121 26.7448 199.186 27.3047 199.316 27.7344C199.46 28.151 199.635 28.4766 199.844 28.7109C200.065 28.9453 200.293 29.1016 200.527 29.1797C200.775 29.2578 201.009 29.2969 201.23 29.2969C201.595 29.2969 201.973 29.1667 202.363 28.9062C202.754 28.6458 203.151 28.2812 203.555 27.8125C203.971 27.3438 204.388 26.7839 204.805 26.1328C205.221 25.4688 205.632 24.7331 206.035 23.9258C206.1 23.7956 206.191 23.6979 206.309 23.6328C206.426 23.5547 206.556 23.5156 206.699 23.5156C206.908 23.5156 207.077 23.5938 207.207 23.75C207.35 23.9062 207.422 24.0755 207.422 24.2578C207.422 24.388 207.396 24.4987 207.344 24.5898C207.188 24.8893 206.992 25.2539 206.758 25.6836C206.523 26.1133 206.257 26.556 205.957 27.0117C205.658 27.4674 205.326 27.9232 204.961 28.3789C204.609 28.8216 204.232 29.2253 203.828 29.5898C203.424 29.9414 203.001 30.2279 202.559 30.4492C202.116 30.6706 201.667 30.7812 201.211 30.7812C200.625 30.7812 200.111 30.6576 199.668 30.4102C199.225 30.1628 198.848 29.8307 198.535 29.4141C198.236 28.9974 198.008 28.5091 197.852 27.9492C197.708 27.3763 197.637 26.7643 197.637 26.1133ZM199.707 14.668C199.707 14.4857 199.635 14.3294 199.492 14.1992C199.362 14.056 199.206 13.9844 199.023 13.9844C198.841 13.9844 198.685 14.056 198.555 14.1992C198.424 14.3294 198.359 14.4857 198.359 14.668C198.359 14.8503 198.424 15.0065 198.555 15.1367C198.685 15.2669 198.841 15.332 199.023 15.332C199.206 15.332 199.362 15.2669 199.492 15.1367C199.635 15.0065 199.707 14.8503 199.707 14.668Z" fill="white"/>
<path d="M207.539 30.957C208.503 30.5273 209.375 30.0326 210.156 29.4727C210.951 28.9128 211.654 28.3268 212.266 27.7148C212.891 27.0898 213.418 26.4583 213.848 25.8203C214.29 25.1693 214.642 24.5508 214.902 23.9648C215.02 23.6784 215.241 23.5352 215.566 23.5352C215.788 23.5352 215.964 23.6133 216.094 23.7695C216.237 23.9128 216.309 24.0755 216.309 24.2578C216.309 24.362 216.289 24.4596 216.25 24.5508C215.964 25.1888 215.599 25.8529 215.156 26.543C214.714 27.2201 214.173 27.8906 213.535 28.5547C212.91 29.2057 212.174 29.8372 211.328 30.4492C210.482 31.0612 209.512 31.6211 208.418 32.1289C209.121 32.8581 209.733 33.6654 210.254 34.5508C210.775 35.4492 211.204 36.3802 211.543 37.3438C211.895 38.3073 212.155 39.2773 212.324 40.2539C212.507 41.2435 212.598 42.1875 212.598 43.0859C212.598 43.9062 212.52 44.6745 212.363 45.3906C212.22 46.1198 211.999 46.7513 211.699 47.2852C211.413 47.819 211.061 48.2357 210.645 48.5352C210.228 48.8477 209.753 49.0039 209.219 49.0039C208.438 49.0039 207.832 48.7109 207.402 48.125C206.973 47.5521 206.654 46.7513 206.445 45.7227C206.25 44.707 206.133 43.5026 206.094 42.1094C206.068 40.7292 206.055 39.2253 206.055 37.5977C206.055 36.7904 206.055 35.8464 206.055 34.7656C206.055 33.6979 206.055 32.5456 206.055 31.3086C206.068 30.0846 206.074 28.8021 206.074 27.4609C206.087 26.1068 206.1 24.7526 206.113 23.3984C206.126 22.0443 206.139 20.7161 206.152 19.4141C206.165 18.099 206.185 16.8555 206.211 15.6836C206.25 13.444 206.328 11.4453 206.445 9.6875C206.562 7.92969 206.751 6.44531 207.012 5.23438C207.272 4.02344 207.624 3.10547 208.066 2.48047C208.522 1.84245 209.095 1.52344 209.785 1.52344C210.332 1.52344 210.794 1.67969 211.172 1.99219C211.549 2.29167 211.855 2.70182 212.09 3.22266C212.324 3.73047 212.493 4.32943 212.598 5.01953C212.702 5.70964 212.754 6.43229 212.754 7.1875C212.754 8.77604 212.617 10.3125 212.344 11.7969C212.07 13.2812 211.699 14.7201 211.23 16.1133C210.762 17.5065 210.208 18.8672 209.57 20.1953C208.945 21.5234 208.275 22.832 207.559 24.1211C207.559 24.6549 207.559 25.2344 207.559 25.8594C207.559 26.4714 207.559 27.0898 207.559 27.7148C207.559 28.3268 207.552 28.9193 207.539 29.4922C207.539 30.0521 207.539 30.5404 207.539 30.957ZM207.598 21.1133C208.132 20.1107 208.62 19.056 209.062 17.9492C209.518 16.8294 209.909 15.6771 210.234 14.4922C210.56 13.3073 210.814 12.0964 210.996 10.8594C211.178 9.6224 211.27 8.37891 211.27 7.12891C211.27 6.50391 211.237 5.9375 211.172 5.42969C211.12 4.92188 211.029 4.49219 210.898 4.14062C210.781 3.77604 210.625 3.49609 210.43 3.30078C210.247 3.09245 210.033 2.98828 209.785 2.98828C209.525 2.98828 209.297 3.14453 209.102 3.45703C208.906 3.76953 208.737 4.1862 208.594 4.70703C208.451 5.22786 208.327 5.82682 208.223 6.50391C208.132 7.18099 208.053 7.89062 207.988 8.63281C207.923 9.36198 207.871 10.0977 207.832 10.8398C207.793 11.569 207.76 12.2591 207.734 12.9102C207.721 13.5482 207.708 14.1146 207.695 14.6094C207.695 15.1042 207.695 15.4753 207.695 15.7227C207.682 16.2435 207.669 16.7057 207.656 17.1094C207.656 17.513 207.65 17.9102 207.637 18.3008C207.624 18.6914 207.611 19.1081 207.598 19.5508C207.598 19.9935 207.598 20.5143 207.598 21.1133ZM207.539 33.3594C207.539 34.1797 207.533 34.9414 207.52 35.6445C207.52 36.3607 207.52 37.0117 207.52 37.5977C207.52 38.8086 207.526 40.0065 207.539 41.1914C207.552 42.3763 207.611 43.4375 207.715 44.375C207.832 45.3255 208.001 46.0872 208.223 46.6602C208.457 47.2461 208.789 47.5391 209.219 47.5391C209.609 47.5391 209.928 47.3633 210.176 47.0117C210.423 46.6602 210.612 46.2435 210.742 45.7617C210.885 45.2799 210.983 44.7852 211.035 44.2773C211.087 43.7826 211.113 43.3789 211.113 43.0664C211.113 42.2721 211.035 41.4388 210.879 40.5664C210.736 39.694 210.508 38.8281 210.195 37.9688C209.896 37.1224 209.525 36.3021 209.082 35.5078C208.639 34.7135 208.125 33.9974 207.539 33.3594Z" fill="white"/>
</svg>
